<svg width="144" height="169" viewBox="0 0 144 169" fill="none" xmlns="http://www.w3.org/2000/svg">
<path d="M50.9297 118.461L81.0938 31.625H95.7891L57.8906 134H47.4141L50.9297 118.461ZM22.7344 31.625L52.6172 118.461L56.3438 134H45.8672L8.03906 31.625H22.7344Z" fill="black"/>
<path d="M93.7812 40.6953L59.8906 134H46.0391L85.0625 31.625H93.9922L93.7812 40.6953ZM122.188 134L88.2266 40.6953L88.0156 31.625H96.9453L136.109 134H122.188ZM120.43 96.1016V107.211H62.9141V96.1016H120.43Z" fill="black"/>
<path d="M6 6L0.512767 40.2037L32.8776 27.8539L6 6ZM12.8228 32.2954L13.657 34.4817L19.2628 32.3426L18.4286 30.1564L12.8228 32.2954Z" fill="black"/>
<path d="M138.462 159.411L143.947 125.207L111.583 137.559L138.462 159.411ZM131.637 133.116L130.803 130.93L125.197 133.07L126.032 135.256L131.637 133.116Z" fill="black"/>
</svg>
