<svg width="700" height="150" viewBox="0 0 700 150" fill="none" xmlns="http://www.w3.org/2000/svg">
<path d="M149.564 60.872H146.864V57.308H162.74V60.872H158.42L163.334 76.856L166.52 88.412H166.844L170.246 76.856L175.322 60.872H171.002V57.308H182.612V60.872H179.912L168.464 95H161.012L149.564 60.872ZM191.727 62.978C190.215 62.978 189.027 62.564 188.163 61.736C187.335 60.908 186.921 59.792 186.921 58.388V58.118C186.921 56.714 187.335 55.598 188.163 54.77C189.027 53.942 190.215 53.528 191.727 53.528C193.239 53.528 194.409 53.942 195.237 54.77C196.101 55.598 196.533 56.714 196.533 58.118V58.388C196.533 59.792 196.101 60.908 195.237 61.736C194.409 62.564 193.239 62.978 191.727 62.978ZM184.437 91.436H187.677V72.158L184.437 71.456V68.378L195.885 66.056V91.436H199.125V95H184.437V91.436ZM214.783 95.648C212.803 95.648 211.291 95.288 210.247 94.568C209.203 93.812 208.537 92.984 208.249 92.084H208.033V95H202.741V86.576H208.033V87.44C208.033 88.844 208.465 89.906 209.329 90.626C210.193 91.346 211.597 91.706 213.541 91.706C215.269 91.706 216.529 91.436 217.321 90.896C218.113 90.356 218.509 89.528 218.509 88.412C218.509 87.512 218.221 86.828 217.645 86.36C217.069 85.856 216.115 85.406 214.783 85.01L212.245 84.308C209.113 83.444 206.791 82.292 205.279 80.852C203.803 79.376 203.065 77.396 203.065 74.912C203.065 72.068 204.001 69.89 205.873 68.378C207.745 66.83 210.211 66.056 213.271 66.056C215.179 66.056 216.637 66.416 217.645 67.136C218.653 67.856 219.301 68.666 219.589 69.566H219.805V66.704H225.097V75.128H219.805V74.156C219.805 72.788 219.373 71.762 218.509 71.078C217.681 70.358 216.313 69.998 214.405 69.998C211.669 69.998 210.301 70.988 210.301 72.968C210.301 73.904 210.571 74.66 211.111 75.236C211.687 75.812 212.713 76.28 214.189 76.64L216.511 77.234C218.023 77.63 219.355 78.08 220.507 78.584C221.659 79.088 222.613 79.7 223.369 80.42C224.161 81.104 224.755 81.95 225.151 82.958C225.547 83.93 225.745 85.1 225.745 86.468C225.745 89.456 224.737 91.742 222.721 93.326C220.705 94.874 218.059 95.648 214.783 95.648ZM241.827 95.648C238.371 95.648 235.923 94.784 234.483 93.056C233.079 91.292 232.377 88.664 232.377 85.172V72.158L229.137 71.456V68.378L240.585 66.056V84.902C240.585 86.81 240.909 88.178 241.557 89.006C242.241 89.798 243.375 90.194 244.959 90.194C245.571 90.194 246.183 90.122 246.795 89.978C247.407 89.798 247.947 89.546 248.415 89.222C248.883 88.862 249.261 88.43 249.549 87.926C249.837 87.386 249.981 86.738 249.981 85.982V72.158L246.741 71.456V68.378L258.189 66.056V89.546L261.429 90.248V93.326L250.143 95.648V90.302H249.873C249.369 91.742 248.469 93.002 247.173 94.082C245.877 95.126 244.095 95.648 241.827 95.648ZM273.442 95.648C270.382 95.648 268.15 94.946 266.746 93.542C265.378 92.102 264.694 90.104 264.694 87.548C264.694 81.968 268.816 79.178 277.06 79.178H280.84V76.1C280.84 73.904 280.426 72.248 279.598 71.132C278.77 70.016 277.33 69.458 275.278 69.458C274.522 69.458 273.874 69.512 273.334 69.62C272.794 69.728 272.326 69.872 271.93 70.052V70.322C272.29 70.502 272.632 70.826 272.956 71.294C273.316 71.762 273.496 72.392 273.496 73.184C273.496 74.264 273.154 75.182 272.47 75.938C271.786 76.658 270.76 77.018 269.392 77.018C268.312 77.018 267.412 76.64 266.692 75.884C265.972 75.128 265.612 74.174 265.612 73.022C265.612 72.158 265.864 71.312 266.368 70.484C266.872 69.62 267.628 68.864 268.636 68.216C269.644 67.568 270.886 67.046 272.362 66.65C273.874 66.254 275.602 66.056 277.546 66.056C281.47 66.056 284.368 66.902 286.24 68.594C288.112 70.25 289.048 72.608 289.048 75.668V91.436H292.288V94.514C291.676 94.874 290.884 95.144 289.912 95.324C288.94 95.54 287.932 95.648 286.888 95.648C284.908 95.648 283.504 95.198 282.676 94.298C281.884 93.362 281.488 92.21 281.488 90.842V90.734H281.164C280.912 91.346 280.588 91.94 280.192 92.516C279.832 93.092 279.346 93.614 278.734 94.082C278.158 94.55 277.438 94.928 276.574 95.216C275.71 95.504 274.666 95.648 273.442 95.648ZM276.52 90.788C277.852 90.788 278.896 90.482 279.652 89.87C280.444 89.258 280.84 88.196 280.84 86.684V82.418H277.924C276.196 82.418 274.9 82.778 274.036 83.498C273.208 84.218 272.794 85.244 272.794 86.576V87.44C272.794 88.592 273.136 89.438 273.82 89.978C274.504 90.518 275.404 90.788 276.52 90.788ZM295.22 91.436H298.46V60.062L295.22 59.36V56.282L306.668 53.96V91.436H309.908V95H295.22V91.436ZM324.682 91.436H327.382L339.1 57.308H346.552L358.27 91.436H360.97V95H345.148V91.436H349.468L346.876 83.498H334.564L331.972 91.436H336.292V95H324.682V91.436ZM335.644 79.772H345.904L340.828 63.896H340.612L335.644 79.772ZM363.682 91.436H366.922V72.158L363.682 71.456V68.378L374.968 66.056V71.402H375.238C375.742 69.962 376.642 68.72 377.938 67.676C379.234 66.596 381.016 66.056 383.284 66.056C386.74 66.056 389.17 66.938 390.574 68.702C392.014 70.43 392.734 73.04 392.734 76.532V91.436H395.974V95H381.556V91.436H384.526V76.802C384.526 74.894 384.184 73.544 383.5 72.752C382.852 71.924 381.736 71.51 380.152 71.51C379.54 71.51 378.928 71.6 378.316 71.78C377.704 71.924 377.164 72.176 376.696 72.536C376.228 72.86 375.85 73.292 375.562 73.832C375.274 74.336 375.13 74.966 375.13 75.722V91.436H378.1V95H363.682V91.436ZM407.968 95.648C404.908 95.648 402.676 94.946 401.272 93.542C399.904 92.102 399.219 90.104 399.219 87.548C399.219 81.968 403.342 79.178 411.586 79.178H415.366V76.1C415.366 73.904 414.952 72.248 414.124 71.132C413.296 70.016 411.856 69.458 409.804 69.458C409.048 69.458 408.4 69.512 407.86 69.62C407.32 69.728 406.852 69.872 406.456 70.052V70.322C406.816 70.502 407.158 70.826 407.482 71.294C407.842 71.762 408.022 72.392 408.022 73.184C408.022 74.264 407.68 75.182 406.996 75.938C406.312 76.658 405.286 77.018 403.918 77.018C402.838 77.018 401.938 76.64 401.218 75.884C400.498 75.128 400.138 74.174 400.138 73.022C400.138 72.158 400.39 71.312 400.894 70.484C401.398 69.62 402.154 68.864 403.162 68.216C404.17 67.568 405.412 67.046 406.888 66.65C408.4 66.254 410.128 66.056 412.072 66.056C415.996 66.056 418.894 66.902 420.766 68.594C422.638 70.25 423.574 72.608 423.574 75.668V91.436H426.814V94.514C426.202 94.874 425.41 95.144 424.438 95.324C423.466 95.54 422.458 95.648 421.414 95.648C419.434 95.648 418.03 95.198 417.202 94.298C416.41 93.362 416.014 92.21 416.014 90.842V90.734H415.69C415.438 91.346 415.114 91.94 414.718 92.516C414.358 93.092 413.872 93.614 413.26 94.082C412.684 94.55 411.964 94.928 411.1 95.216C410.236 95.504 409.192 95.648 407.968 95.648ZM411.046 90.788C412.378 90.788 413.422 90.482 414.178 89.87C414.97 89.258 415.366 88.196 415.366 86.684V82.418H412.45C410.722 82.418 409.426 82.778 408.562 83.498C407.734 84.218 407.32 85.244 407.32 86.576V87.44C407.32 88.592 407.662 89.438 408.346 89.978C409.03 90.518 409.93 90.788 411.046 90.788ZM429.745 91.436H432.985V60.062L429.745 59.36V56.282L441.193 53.96V91.436H444.433V95H429.745V91.436ZM452.65 106.448C450.49 106.448 448.816 105.908 447.628 104.828C446.44 103.784 445.846 102.524 445.846 101.048C445.846 99.752 446.206 98.744 446.926 98.024C447.682 97.304 448.708 96.944 450.004 96.944C451.264 96.944 452.236 97.34 452.92 98.132C453.604 98.924 453.946 99.842 453.946 100.886C453.946 101.354 453.874 101.786 453.73 102.182C453.586 102.614 453.424 102.956 453.244 103.208L453.352 103.532C453.496 103.568 453.694 103.586 453.946 103.586C454.882 103.586 455.746 103.082 456.538 102.074C457.33 101.066 458.086 99.626 458.806 97.754L459.346 96.35L449.086 70.268H446.494V66.704H460.696V70.268H457.672L463.342 86.63H463.666L469.39 70.268H466.366V66.704H476.302V70.268H473.764L462.424 97.916C462.028 98.888 461.56 99.878 461.02 100.886C460.48 101.93 459.832 102.848 459.076 103.64C458.32 104.468 457.42 105.134 456.376 105.638C455.332 106.178 454.09 106.448 452.65 106.448ZM487.928 95.54C485.768 95.54 484.166 95.072 483.122 94.136C482.114 93.164 481.61 91.742 481.61 89.87V70.484H477.83V66.704H479.288C480.476 66.704 481.34 66.452 481.88 65.948C482.456 65.408 482.996 64.616 483.5 63.572L485.768 58.874H489.818V66.704H496.028V70.484H489.818V91.328H496.028V94.514C495.452 94.766 494.426 95 492.95 95.216C491.474 95.432 489.8 95.54 487.928 95.54ZM506.71 62.978C505.198 62.978 504.01 62.564 503.146 61.736C502.318 60.908 501.904 59.792 501.904 58.388V58.118C501.904 56.714 502.318 55.598 503.146 54.77C504.01 53.942 505.198 53.528 506.71 53.528C508.222 53.528 509.392 53.942 510.22 54.77C511.084 55.598 511.516 56.714 511.516 58.118V58.388C511.516 59.792 511.084 60.908 510.22 61.736C509.392 62.564 508.222 62.978 506.71 62.978ZM499.42 91.436H502.66V72.158L499.42 71.456V68.378L510.868 66.056V91.436H514.108V95H499.42V91.436ZM531.386 95.648C529.118 95.648 527.12 95.27 525.392 94.514C523.7 93.758 522.26 92.714 521.072 91.382C519.92 90.05 519.038 88.484 518.426 86.684C517.85 84.884 517.562 82.922 517.562 80.798C517.562 78.422 517.94 76.334 518.696 74.534C519.452 72.698 520.478 71.15 521.774 69.89C523.106 68.63 524.654 67.676 526.418 67.028C528.218 66.38 530.144 66.056 532.196 66.056C535.508 66.056 538.046 66.74 539.81 68.108C541.61 69.476 542.51 71.204 542.51 73.292C542.51 74.66 542.132 75.758 541.376 76.586C540.62 77.378 539.576 77.774 538.244 77.774C536.912 77.774 535.886 77.432 535.166 76.748C534.446 76.028 534.086 75.092 534.086 73.94C534.086 73.004 534.32 72.23 534.788 71.618C535.292 71.006 535.85 70.556 536.462 70.268V69.944C536.102 69.836 535.67 69.728 535.166 69.62C534.698 69.512 534.05 69.458 533.222 69.458C531.026 69.458 529.316 70.16 528.092 71.564C526.868 72.932 526.256 74.912 526.256 77.504V83.12C526.256 85.496 526.814 87.314 527.93 88.574C529.046 89.798 530.594 90.41 532.574 90.41C534.59 90.41 536.192 89.942 537.38 89.006C538.568 88.07 539.414 86.972 539.918 85.712L542.942 87.494C542.618 88.394 542.15 89.33 541.538 90.302C540.962 91.274 540.206 92.156 539.27 92.948C538.334 93.74 537.218 94.388 535.922 94.892C534.626 95.396 533.114 95.648 531.386 95.648ZM558.664 95.648C556.684 95.648 555.172 95.288 554.128 94.568C553.084 93.812 552.418 92.984 552.13 92.084H551.914V95H546.622V86.576H551.914V87.44C551.914 88.844 552.346 89.906 553.21 90.626C554.074 91.346 555.478 91.706 557.422 91.706C559.15 91.706 560.41 91.436 561.202 90.896C561.994 90.356 562.39 89.528 562.39 88.412C562.39 87.512 562.102 86.828 561.526 86.36C560.95 85.856 559.996 85.406 558.664 85.01L556.126 84.308C552.994 83.444 550.672 82.292 549.16 80.852C547.684 79.376 546.946 77.396 546.946 74.912C546.946 72.068 547.882 69.89 549.754 68.378C551.626 66.83 554.092 66.056 557.152 66.056C559.06 66.056 560.518 66.416 561.526 67.136C562.534 67.856 563.182 68.666 563.47 69.566H563.686V66.704H568.978V75.128H563.686V74.156C563.686 72.788 563.254 71.762 562.39 71.078C561.562 70.358 560.194 69.998 558.286 69.998C555.55 69.998 554.182 70.988 554.182 72.968C554.182 73.904 554.452 74.66 554.992 75.236C555.568 75.812 556.594 76.28 558.07 76.64L560.392 77.234C561.904 77.63 563.236 78.08 564.388 78.584C565.54 79.088 566.494 79.7 567.25 80.42C568.042 81.104 568.636 81.95 569.032 82.958C569.428 83.93 569.626 85.1 569.626 86.468C569.626 89.456 568.618 91.742 566.602 93.326C564.586 94.874 561.94 95.648 558.664 95.648ZM586.595 91.436H590.375V60.872H586.595V57.308H603.173V60.872H599.123V91.112H609.383V83.876H615.647V95H586.595V91.436ZM628.925 95.648C625.865 95.648 623.633 94.946 622.229 93.542C620.861 92.102 620.177 90.104 620.177 87.548C620.177 81.968 624.299 79.178 632.543 79.178H636.323V76.1C636.323 73.904 635.909 72.248 635.081 71.132C634.253 70.016 632.813 69.458 630.761 69.458C630.005 69.458 629.357 69.512 628.817 69.62C628.277 69.728 627.809 69.872 627.413 70.052V70.322C627.773 70.502 628.115 70.826 628.439 71.294C628.799 71.762 628.979 72.392 628.979 73.184C628.979 74.264 628.637 75.182 627.953 75.938C627.269 76.658 626.243 77.018 624.875 77.018C623.795 77.018 622.895 76.64 622.175 75.884C621.455 75.128 621.095 74.174 621.095 73.022C621.095 72.158 621.347 71.312 621.851 70.484C622.355 69.62 623.111 68.864 624.119 68.216C625.127 67.568 626.369 67.046 627.845 66.65C629.357 66.254 631.085 66.056 633.029 66.056C636.953 66.056 639.851 66.902 641.723 68.594C643.595 70.25 644.531 72.608 644.531 75.668V91.436H647.771V94.514C647.159 94.874 646.367 95.144 645.395 95.324C644.423 95.54 643.415 95.648 642.371 95.648C640.391 95.648 638.987 95.198 638.159 94.298C637.367 93.362 636.971 92.21 636.971 90.842V90.734H636.647C636.395 91.346 636.071 91.94 635.675 92.516C635.315 93.092 634.829 93.614 634.217 94.082C633.641 94.55 632.921 94.928 632.057 95.216C631.193 95.504 630.149 95.648 628.925 95.648ZM632.003 90.788C633.335 90.788 634.379 90.482 635.135 89.87C635.927 89.258 636.323 88.196 636.323 86.684V82.418H633.407C631.679 82.418 630.383 82.778 629.519 83.498C628.691 84.218 628.277 85.244 628.277 86.576V87.44C628.277 88.592 628.619 89.438 629.303 89.978C629.987 90.518 630.887 90.788 632.003 90.788ZM669.548 95.648C667.46 95.648 665.696 95.144 664.256 94.136C662.852 93.128 661.898 91.958 661.394 90.626H661.124L657.344 95H653.564V60.062L650.324 59.36V56.282L661.772 53.96V70.916H662.096C662.6 69.656 663.482 68.54 664.742 67.568C666.002 66.56 667.604 66.056 669.548 66.056C671.276 66.056 672.824 66.416 674.192 67.136C675.596 67.82 676.784 68.81 677.756 70.106C678.728 71.402 679.466 72.968 679.97 74.804C680.51 76.604 680.78 78.62 680.78 80.852C680.78 83.084 680.51 85.118 679.97 86.954C679.466 88.754 678.728 90.302 677.756 91.598C676.784 92.894 675.596 93.902 674.192 94.622C672.824 95.306 671.276 95.648 669.548 95.648ZM666.794 90.68C668.306 90.68 669.566 90.158 670.574 89.114C671.582 88.07 672.086 86.54 672.086 84.524V77.126C672.086 75.11 671.582 73.58 670.574 72.536C669.566 71.492 668.306 70.97 666.794 70.97C665.354 70.97 664.148 71.42 663.176 72.32C662.24 73.22 661.772 74.426 661.772 75.938V85.712C661.772 87.224 662.24 88.43 663.176 89.33C664.148 90.23 665.354 90.68 666.794 90.68Z" fill="#2B2B2B"/>
<path d="M99 11L99 139" stroke="#E6E6E6" stroke-width="3" stroke-linecap="round"/>
<path d="M136 11L136 139" stroke="#E6E6E6" stroke-width="3" stroke-linecap="round"/>
<path d="M61 11L61 139" stroke="#E6E6E6" stroke-width="3" stroke-linecap="round"/>
<path d="M24 11L24 139" stroke="#E6E6E6" stroke-width="3" stroke-linecap="round"/>
<path d="M136 100L99 88" stroke="#E6E6E6" stroke-width="2"/>
<path d="M99 88L61 102" stroke="#E6E6E6" stroke-width="2"/>
<path d="M99 93L61 115" stroke="#E6E6E6" stroke-width="2"/>
<path d="M99 93L136 104" stroke="#E6E6E6" stroke-width="2"/>
<path d="M99 48L61 63" stroke="#E6E6E6" stroke-width="2"/>
<path d="M136 127.706L99 116.412" stroke="#E6E6E6" stroke-width="2"/>
<path d="M99 116.412L61 127.706" stroke="#E6E6E6" stroke-width="2"/>
<path d="M24 48L61 63" stroke="#E6E6E6" stroke-width="2"/>
<path d="M24 51L61 102" stroke="#E6E6E6" stroke-width="2"/>
<path d="M24 69L61 115" stroke="#E6E6E6" stroke-width="2"/>
<path d="M99 48L136 91" stroke="#E6E6E6" stroke-width="2"/>
<path d="M99 17L136 85" stroke="#E6E6E6" stroke-width="2"/>
<path d="M99 17L61 57" stroke="#E6E6E6" stroke-width="2"/>
<path d="M24 17L61 57" stroke="#E6E6E6" stroke-width="2"/>
<path d="M61 128L99 62" stroke="#3A5DAE" stroke-width="16"/>
<path d="M61 128L99 110" stroke="#3A5DAE" stroke-width="16"/>
<path d="M99 62L136 128" stroke="#3A5DAE" stroke-width="16"/>
<path d="M99 110L136 128" stroke="#3A5DAE" stroke-width="16"/>
<circle cx="136" cy="128" r="7" fill="#D6DBD4" stroke="#3A5DAE" stroke-width="2"/>
<circle cx="99" cy="62" r="7" fill="#D6DBD4" stroke="#3A5DAE" stroke-width="2"/>
<circle cx="61" cy="128" r="7" fill="#D6DBD4" stroke="#3A5DAE" stroke-width="2"/>
<circle cx="99" cy="110" r="7" fill="#D6DBD4" stroke="#3A5DAE" stroke-width="2"/>
<path d="M61 88L99 22" stroke="#A4925A" stroke-width="16"/>
<circle cx="99" cy="22" r="7" fill="#D6DBD4" stroke="#A4925A" stroke-width="2"/>
<path d="M24 22L61 88" stroke="#A4925A" stroke-width="16"/>
<circle cx="61" cy="88" r="7" fill="#D6DBD4" stroke="#A4925A" stroke-width="2"/>
<circle cx="24" cy="22" r="7" fill="#D6DBD4" stroke="#A4925A" stroke-width="2"/>
</svg>
