<svg width="700" height="150" viewBox="0 0 700 150" fill="none" xmlns="http://www.w3.org/2000/svg">
<path d="M163.432 62.136H160.832V58.704H176.12V62.136H171.96L176.692 77.528L179.76 88.656H180.072L183.348 77.528L188.236 62.136H184.076V58.704H195.256V62.136H192.656L181.632 95H174.456L163.432 62.136ZM204.034 64.164C202.578 64.164 201.434 63.7653 200.602 62.968C199.805 62.1707 199.406 61.096 199.406 59.744V59.484C199.406 58.132 199.805 57.0573 200.602 56.26C201.434 55.4627 202.578 55.064 204.034 55.064C205.49 55.064 206.617 55.4627 207.414 56.26C208.246 57.0573 208.662 58.132 208.662 59.484V59.744C208.662 61.096 208.246 62.1707 207.414 62.968C206.617 63.7653 205.49 64.164 204.034 64.164ZM197.014 91.568H200.134V73.004L197.014 72.328V69.364L208.038 67.128V91.568H211.158V95H197.014V91.568ZM226.236 95.624C224.329 95.624 222.873 95.2773 221.868 94.584C220.862 93.856 220.221 93.0587 219.944 92.192H219.736V95H214.64V86.888H219.736V87.72C219.736 89.072 220.152 90.0947 220.984 90.788C221.816 91.4813 223.168 91.828 225.04 91.828C226.704 91.828 227.917 91.568 228.68 91.048C229.442 90.528 229.824 89.7307 229.824 88.656C229.824 87.7893 229.546 87.1307 228.992 86.68C228.437 86.1947 227.518 85.7613 226.236 85.38L223.792 84.704C220.776 83.872 218.54 82.7627 217.084 81.376C215.662 79.9547 214.952 78.048 214.952 75.656C214.952 72.9173 215.853 70.82 217.656 69.364C219.458 67.8733 221.833 67.128 224.78 67.128C226.617 67.128 228.021 67.4747 228.992 68.168C229.962 68.8613 230.586 69.6413 230.864 70.508H231.072V67.752H236.168V75.864H231.072V74.928C231.072 73.6107 230.656 72.6227 229.824 71.964C229.026 71.2707 227.709 70.924 225.872 70.924C223.237 70.924 221.92 71.8773 221.92 73.784C221.92 74.6853 222.18 75.4133 222.7 75.968C223.254 76.5227 224.242 76.9733 225.664 77.32L227.9 77.892C229.356 78.2733 230.638 78.7067 231.748 79.192C232.857 79.6773 233.776 80.2667 234.504 80.96C235.266 81.6187 235.838 82.4333 236.22 83.404C236.601 84.34 236.792 85.4667 236.792 86.784C236.792 89.6613 235.821 91.8627 233.88 93.388C231.938 94.8787 229.39 95.624 226.236 95.624ZM252.278 95.624C248.95 95.624 246.593 94.792 245.206 93.128C243.854 91.4293 243.178 88.8987 243.178 85.536V73.004L240.058 72.328V69.364L251.082 67.128V85.276C251.082 87.1133 251.394 88.4307 252.018 89.228C252.677 89.9907 253.769 90.372 255.294 90.372C255.883 90.372 256.473 90.3027 257.062 90.164C257.651 89.9907 258.171 89.748 258.622 89.436C259.073 89.0893 259.437 88.6733 259.714 88.188C259.991 87.668 260.13 87.044 260.13 86.316V73.004L257.01 72.328V69.364L268.034 67.128V89.748L271.154 90.424V93.388L260.286 95.624V90.476H260.026C259.541 91.8627 258.674 93.076 257.426 94.116C256.178 95.1213 254.462 95.624 252.278 95.624ZM282.722 95.624C279.775 95.624 277.626 94.948 276.274 93.596C274.957 92.2093 274.298 90.2853 274.298 87.824C274.298 82.4507 278.267 79.764 286.206 79.764H289.846V76.8C289.846 74.6853 289.447 73.0907 288.65 72.016C287.853 70.9413 286.466 70.404 284.49 70.404C283.762 70.404 283.138 70.456 282.618 70.56C282.098 70.664 281.647 70.8027 281.266 70.976V71.236C281.613 71.4093 281.942 71.7213 282.254 72.172C282.601 72.6227 282.774 73.2293 282.774 73.992C282.774 75.032 282.445 75.916 281.786 76.644C281.127 77.3373 280.139 77.684 278.822 77.684C277.782 77.684 276.915 77.32 276.222 76.592C275.529 75.864 275.182 74.9453 275.182 73.836C275.182 73.004 275.425 72.1893 275.91 71.392C276.395 70.56 277.123 69.832 278.094 69.208C279.065 68.584 280.261 68.0813 281.682 67.7C283.138 67.3187 284.802 67.128 286.674 67.128C290.453 67.128 293.243 67.9427 295.046 69.572C296.849 71.1667 297.75 73.4373 297.75 76.384V91.568H300.87V94.532C300.281 94.8787 299.518 95.1387 298.582 95.312C297.646 95.52 296.675 95.624 295.67 95.624C293.763 95.624 292.411 95.1907 291.614 94.324C290.851 93.4227 290.47 92.3133 290.47 90.996V90.892H290.158C289.915 91.4813 289.603 92.0533 289.222 92.608C288.875 93.1627 288.407 93.6653 287.818 94.116C287.263 94.5667 286.57 94.9307 285.738 95.208C284.906 95.4853 283.901 95.624 282.722 95.624ZM285.686 90.944C286.969 90.944 287.974 90.6493 288.702 90.06C289.465 89.4707 289.846 88.448 289.846 86.992V82.884H287.038C285.374 82.884 284.126 83.2307 283.294 83.924C282.497 84.6173 282.098 85.6053 282.098 86.888V87.72C282.098 88.8293 282.427 89.644 283.086 90.164C283.745 90.684 284.611 90.944 285.686 90.944ZM303.693 91.568H306.813V61.356L303.693 60.68V57.716L314.717 55.48V91.568H317.837V95H303.693V91.568ZM332.064 91.568H334.664L345.948 58.704H353.124L364.408 91.568H367.008V95H351.772V91.568H355.932L353.436 83.924H341.58L339.084 91.568H343.244V95H332.064V91.568ZM342.62 80.336H352.5L347.612 65.048H347.404L342.62 80.336ZM369.619 91.568H372.739V73.004L369.619 72.328V69.364L380.487 67.128V72.276H380.747C381.233 70.8893 382.099 69.6933 383.347 68.688C384.595 67.648 386.311 67.128 388.495 67.128C391.823 67.128 394.163 67.9773 395.515 69.676C396.902 71.34 397.595 73.8533 397.595 77.216V91.568H400.715V95H386.831V91.568H389.691V77.476C389.691 75.6387 389.362 74.3387 388.703 73.576C388.079 72.7787 387.005 72.38 385.479 72.38C384.89 72.38 384.301 72.4667 383.711 72.64C383.122 72.7787 382.602 73.0213 382.151 73.368C381.701 73.68 381.337 74.096 381.059 74.616C380.782 75.1013 380.643 75.708 380.643 76.436V91.568H383.503V95H369.619V91.568ZM412.265 95.624C409.318 95.624 407.169 94.948 405.817 93.596C404.5 92.2093 403.841 90.2853 403.841 87.824C403.841 82.4507 407.81 79.764 415.749 79.764H419.389V76.8C419.389 74.6853 418.99 73.0907 418.193 72.016C417.396 70.9413 416.009 70.404 414.033 70.404C413.305 70.404 412.681 70.456 412.161 70.56C411.641 70.664 411.19 70.8027 410.809 70.976V71.236C411.156 71.4093 411.485 71.7213 411.797 72.172C412.144 72.6227 412.317 73.2293 412.317 73.992C412.317 75.032 411.988 75.916 411.329 76.644C410.67 77.3373 409.682 77.684 408.365 77.684C407.325 77.684 406.458 77.32 405.765 76.592C405.072 75.864 404.725 74.9453 404.725 73.836C404.725 73.004 404.968 72.1893 405.453 71.392C405.938 70.56 406.666 69.832 407.637 69.208C408.608 68.584 409.804 68.0813 411.225 67.7C412.681 67.3187 414.345 67.128 416.217 67.128C419.996 67.128 422.786 67.9427 424.589 69.572C426.392 71.1667 427.293 73.4373 427.293 76.384V91.568H430.413V94.532C429.824 94.8787 429.061 95.1387 428.125 95.312C427.189 95.52 426.218 95.624 425.213 95.624C423.306 95.624 421.954 95.1907 421.157 94.324C420.394 93.4227 420.013 92.3133 420.013 90.996V90.892H419.701C419.458 91.4813 419.146 92.0533 418.765 92.608C418.418 93.1627 417.95 93.6653 417.361 94.116C416.806 94.5667 416.113 94.9307 415.281 95.208C414.449 95.4853 413.444 95.624 412.265 95.624ZM415.229 90.944C416.512 90.944 417.517 90.6493 418.245 90.06C419.008 89.4707 419.389 88.448 419.389 86.992V82.884H416.581C414.917 82.884 413.669 83.2307 412.837 83.924C412.04 84.6173 411.641 85.6053 411.641 86.888V87.72C411.641 88.8293 411.97 89.644 412.629 90.164C413.288 90.684 414.154 90.944 415.229 90.944ZM433.236 91.568H436.356V61.356L433.236 60.68V57.716L444.26 55.48V91.568H447.38V95H433.236V91.568ZM455.293 106.024C453.213 106.024 451.601 105.504 450.457 104.464C449.313 103.459 448.741 102.245 448.741 100.824C448.741 99.576 449.088 98.6053 449.781 97.912C450.509 97.2187 451.497 96.872 452.745 96.872C453.958 96.872 454.894 97.2533 455.553 98.016C456.212 98.7787 456.541 99.6627 456.541 100.668C456.541 101.119 456.472 101.535 456.333 101.916C456.194 102.332 456.038 102.661 455.865 102.904L455.969 103.216C456.108 103.251 456.298 103.268 456.541 103.268C457.442 103.268 458.274 102.783 459.037 101.812C459.8 100.841 460.528 99.4547 461.221 97.652L461.741 96.3L451.861 71.184H449.365V67.752H463.041V71.184H460.129L465.589 86.94H465.901L471.413 71.184H468.501V67.752H478.069V71.184H475.625L464.705 97.808C464.324 98.744 463.873 99.6973 463.353 100.668C462.833 101.673 462.209 102.557 461.481 103.32C460.753 104.117 459.886 104.759 458.881 105.244C457.876 105.764 456.68 106.024 455.293 106.024ZM489.264 95.52C487.184 95.52 485.641 95.0693 484.636 94.168C483.665 93.232 483.18 91.8627 483.18 90.06V71.392H479.54V67.752H480.944C482.088 67.752 482.92 67.5093 483.44 67.024C483.995 66.504 484.515 65.7413 485 64.736L487.184 60.212H491.084V67.752H497.064V71.392H491.084V91.464H497.064V94.532C496.509 94.7747 495.521 95 494.1 95.208C492.679 95.416 491.067 95.52 489.264 95.52ZM507.35 64.164C505.894 64.164 504.75 63.7653 503.918 62.968C503.121 62.1707 502.722 61.096 502.722 59.744V59.484C502.722 58.132 503.121 57.0573 503.918 56.26C504.75 55.4627 505.894 55.064 507.35 55.064C508.806 55.064 509.933 55.4627 510.73 56.26C511.562 57.0573 511.978 58.132 511.978 59.484V59.744C511.978 61.096 511.562 62.1707 510.73 62.968C509.933 63.7653 508.806 64.164 507.35 64.164ZM500.33 91.568H503.45V73.004L500.33 72.328V69.364L511.354 67.128V91.568H514.474V95H500.33V91.568ZM531.112 95.624C528.928 95.624 527.004 95.26 525.34 94.532C523.711 93.804 522.324 92.7987 521.18 91.516C520.071 90.2333 519.222 88.7253 518.632 86.992C518.078 85.2587 517.8 83.3693 517.8 81.324C517.8 79.036 518.164 77.0253 518.892 75.292C519.62 73.524 520.608 72.0333 521.856 70.82C523.139 69.6067 524.63 68.688 526.328 68.064C528.062 67.44 529.916 67.128 531.892 67.128C535.082 67.128 537.526 67.7867 539.224 69.104C540.958 70.4213 541.824 72.0853 541.824 74.096C541.824 75.4133 541.46 76.4707 540.732 77.268C540.004 78.0307 538.999 78.412 537.716 78.412C536.434 78.412 535.446 78.0827 534.752 77.424C534.059 76.7307 533.712 75.8293 533.712 74.72C533.712 73.8187 533.938 73.0733 534.388 72.484C534.874 71.8947 535.411 71.4613 536 71.184V70.872C535.654 70.768 535.238 70.664 534.752 70.56C534.302 70.456 533.678 70.404 532.88 70.404C530.766 70.404 529.119 71.08 527.94 72.432C526.762 73.7493 526.172 75.656 526.172 78.152V83.56C526.172 85.848 526.71 87.5987 527.784 88.812C528.859 89.9907 530.35 90.58 532.256 90.58C534.198 90.58 535.74 90.1293 536.884 89.228C538.028 88.3267 538.843 87.2693 539.328 86.056L542.24 87.772C541.928 88.6387 541.478 89.54 540.888 90.476C540.334 91.412 539.606 92.2613 538.704 93.024C537.803 93.7867 536.728 94.4107 535.48 94.896C534.232 95.3813 532.776 95.624 531.112 95.624ZM557.38 95.624C555.474 95.624 554.018 95.2773 553.012 94.584C552.007 93.856 551.366 93.0587 551.088 92.192H550.88V95H545.784V86.888H550.88V87.72C550.88 89.072 551.296 90.0947 552.128 90.788C552.96 91.4813 554.312 91.828 556.184 91.828C557.848 91.828 559.062 91.568 559.824 91.048C560.587 90.528 560.968 89.7307 560.968 88.656C560.968 87.7893 560.691 87.1307 560.136 86.68C559.582 86.1947 558.663 85.7613 557.38 85.38L554.936 84.704C551.92 83.872 549.684 82.7627 548.228 81.376C546.807 79.9547 546.096 78.048 546.096 75.656C546.096 72.9173 546.998 70.82 548.8 69.364C550.603 67.8733 552.978 67.128 555.924 67.128C557.762 67.128 559.166 67.4747 560.136 68.168C561.107 68.8613 561.731 69.6413 562.008 70.508H562.216V67.752H567.312V75.864H562.216V74.928C562.216 73.6107 561.8 72.6227 560.968 71.964C560.171 71.2707 558.854 70.924 557.016 70.924C554.382 70.924 553.064 71.8773 553.064 73.784C553.064 74.6853 553.324 75.4133 553.844 75.968C554.399 76.5227 555.387 76.9733 556.808 77.32L559.044 77.892C560.5 78.2733 561.783 78.7067 562.892 79.192C564.002 79.6773 564.92 80.2667 565.648 80.96C566.411 81.6187 566.983 82.4333 567.364 83.404C567.746 84.34 567.936 85.4667 567.936 86.784C567.936 89.6613 566.966 91.8627 565.024 93.388C563.083 94.8787 560.535 95.624 557.38 95.624ZM584.277 91.568H587.917V62.136H584.277V58.704H600.241V62.136H596.341V91.256H606.221V84.288H612.253V95H584.277V91.568ZM625.038 95.624C622.092 95.624 619.942 94.948 618.59 93.596C617.273 92.2093 616.614 90.2853 616.614 87.824C616.614 82.4507 620.584 79.764 628.522 79.764H632.162V76.8C632.162 74.6853 631.764 73.0907 630.966 72.016C630.169 70.9413 628.782 70.404 626.806 70.404C626.078 70.404 625.454 70.456 624.934 70.56C624.414 70.664 623.964 70.8027 623.582 70.976V71.236C623.929 71.4093 624.258 71.7213 624.57 72.172C624.917 72.6227 625.09 73.2293 625.09 73.992C625.09 75.032 624.761 75.916 624.102 76.644C623.444 77.3373 622.456 77.684 621.138 77.684C620.098 77.684 619.232 77.32 618.538 76.592C617.845 75.864 617.498 74.9453 617.498 73.836C617.498 73.004 617.741 72.1893 618.226 71.392C618.712 70.56 619.44 69.832 620.41 69.208C621.381 68.584 622.577 68.0813 623.998 67.7C625.454 67.3187 627.118 67.128 628.99 67.128C632.769 67.128 635.56 67.9427 637.362 69.572C639.165 71.1667 640.066 73.4373 640.066 76.384V91.568H643.186V94.532C642.597 94.8787 641.834 95.1387 640.898 95.312C639.962 95.52 638.992 95.624 637.986 95.624C636.08 95.624 634.728 95.1907 633.93 94.324C633.168 93.4227 632.786 92.3133 632.786 90.996V90.892H632.474C632.232 91.4813 631.92 92.0533 631.538 92.608C631.192 93.1627 630.724 93.6653 630.134 94.116C629.58 94.5667 628.886 94.9307 628.054 95.208C627.222 95.4853 626.217 95.624 625.038 95.624ZM628.002 90.944C629.285 90.944 630.29 90.6493 631.018 90.06C631.781 89.4707 632.162 88.448 632.162 86.992V82.884H629.354C627.69 82.884 626.442 83.2307 625.61 83.924C624.813 84.6173 624.414 85.6053 624.414 86.888V87.72C624.414 88.8293 624.744 89.644 625.402 90.164C626.061 90.684 626.928 90.944 628.002 90.944ZM664.157 95.624C662.147 95.624 660.448 95.1387 659.061 94.168C657.709 93.1973 656.791 92.0707 656.305 90.788H656.045L652.405 95H648.765V61.356L645.645 60.68V57.716L656.669 55.48V71.808H656.981C657.467 70.5947 658.316 69.52 659.529 68.584C660.743 67.6133 662.285 67.128 664.157 67.128C665.821 67.128 667.312 67.4747 668.629 68.168C669.981 68.8267 671.125 69.78 672.061 71.028C672.997 72.276 673.708 73.784 674.193 75.552C674.713 77.2853 674.973 79.2267 674.973 81.376C674.973 83.5253 674.713 85.484 674.193 87.252C673.708 88.9853 672.997 90.476 672.061 91.724C671.125 92.972 669.981 93.9427 668.629 94.636C667.312 95.2947 665.821 95.624 664.157 95.624ZM661.505 90.84C662.961 90.84 664.175 90.3373 665.145 89.332C666.116 88.3267 666.601 86.8533 666.601 84.912V77.788C666.601 75.8467 666.116 74.3733 665.145 73.368C664.175 72.3627 662.961 71.86 661.505 71.86C660.119 71.86 658.957 72.2933 658.021 73.16C657.12 74.0267 656.669 75.188 656.669 76.644V86.056C656.669 87.512 657.12 88.6733 658.021 89.54C658.957 90.4067 660.119 90.84 661.505 90.84Z" fill="#2B2B2B"/>
<path d="M99 11L99 139" stroke="#E6E6E6" stroke-width="3" stroke-linecap="round"/>
<path d="M136 11L136 139" stroke="#E6E6E6" stroke-width="3" stroke-linecap="round"/>
<path d="M61 11L61 139" stroke="#E6E6E6" stroke-width="3" stroke-linecap="round"/>
<path d="M24 11L24 139" stroke="#E6E6E6" stroke-width="3" stroke-linecap="round"/>
<path d="M136 100L99 88" stroke="#E6E6E6" stroke-width="2"/>
<path d="M99 88L61 102" stroke="#E6E6E6" stroke-width="2"/>
<path d="M99 93L61 115" stroke="#E6E6E6" stroke-width="2"/>
<path d="M99 93L136 104" stroke="#E6E6E6" stroke-width="2"/>
<path d="M99 48L61 63" stroke="#E6E6E6" stroke-width="2"/>
<path d="M136 127.706L99 116.412" stroke="#E6E6E6" stroke-width="2"/>
<path d="M99 116.412L61 127.706" stroke="#E6E6E6" stroke-width="2"/>
<path d="M24 48L61 63" stroke="#E6E6E6" stroke-width="2"/>
<path d="M24 51L61 102" stroke="#E6E6E6" stroke-width="2"/>
<path d="M24 69L61 115" stroke="#E6E6E6" stroke-width="2"/>
<path d="M99 48L136 91" stroke="#E6E6E6" stroke-width="2"/>
<path d="M99 17L136 85" stroke="#E6E6E6" stroke-width="2"/>
<path d="M99 17L61 57" stroke="#E6E6E6" stroke-width="2"/>
<path d="M24 17L61 57" stroke="#E6E6E6" stroke-width="2"/>
<path d="M61 128L99 62" stroke="#3A5DAE" stroke-width="16"/>
<path d="M61 128L99 110" stroke="#3A5DAE" stroke-width="16"/>
<path d="M99 62L136 128" stroke="#3A5DAE" stroke-width="16"/>
<path d="M99 110L136 128" stroke="#3A5DAE" stroke-width="16"/>
<circle cx="136" cy="128" r="7" fill="#D6DBD4" stroke="#3A5DAE" stroke-width="2"/>
<circle cx="99" cy="62" r="7" fill="#D6DBD4" stroke="#3A5DAE" stroke-width="2"/>
<circle cx="61" cy="128" r="7" fill="#D6DBD4" stroke="#3A5DAE" stroke-width="2"/>
<circle cx="99" cy="110" r="7" fill="#D6DBD4" stroke="#3A5DAE" stroke-width="2"/>
<path d="M61 88L99 22" stroke="#A4925A" stroke-width="16"/>
<circle cx="99" cy="22" r="7" fill="#D6DBD4" stroke="#A4925A" stroke-width="2"/>
<path d="M24 22L61 88" stroke="#A4925A" stroke-width="16"/>
<circle cx="61" cy="88" r="7" fill="#D6DBD4" stroke="#A4925A" stroke-width="2"/>
<circle cx="24" cy="22" r="7" fill="#D6DBD4" stroke="#A4925A" stroke-width="2"/>
</svg>
