<?xml version="1.0" standalone="no"?>
<!DOCTYPE svg PUBLIC "-//W3C//DTD SVG 20010904//EN"
 "http://www.w3.org/TR/2001/REC-SVG-20010904/DTD/svg10.dtd">
<svg version="1.0" xmlns="http://www.w3.org/2000/svg"
 width="700.000000pt" height="700.000000pt" viewBox="0 0 700.000000 700.000000"
 preserveAspectRatio="xMidYMid meet">
<metadata>
Created by potrace 1.14, written by Peter Selinger 2001-2017
</metadata>
<g transform="translate(0.000000,700.000000) scale(0.100000,-0.100000)"
fill="#000000" stroke="none">
<path d="M955 6155 c-99 -30 -175 -95 -221 -190 -26 -53 -29 -70 -28 -150 1
-107 -9 -85 194 -445 78 -140 193 -345 255 -455 248 -442 580 -1033 710 -1265
76 -135 147 -263 160 -285 12 -22 31 -56 42 -75 33 -58 96 -171 223 -400 103
-185 139 -229 228 -272 60 -30 75 -33 152 -32 69 1 96 6 142 27 91 41 131 91
272 337 71 124 137 239 147 255 11 17 22 37 26 45 4 8 26 47 48 85 23 39 53
90 67 115 14 25 69 122 123 215 54 94 129 224 167 290 37 66 72 127 77 135 37
61 217 376 220 384 2 6 9 18 16 26 7 8 25 37 40 64 14 28 163 287 331 578 167
290 311 550 320 578 38 117 -6 275 -100 357 -72 63 -139 87 -236 87 -73 0 -93
-4 -145 -29 -65 -31 -138 -101 -170 -162 -11 -21 -36 -65 -56 -98 -20 -33 -49
-85 -66 -115 -16 -30 -44 -78 -60 -106 -17 -27 -41 -70 -55 -95 -14 -24 -94
-163 -178 -309 -335 -582 -422 -732 -439 -763 -10 -18 -103 -178 -206 -357
-103 -179 -199 -345 -213 -370 -42 -77 -63 -110 -71 -110 -4 0 -17 19 -29 43
-12 23 -38 71 -58 107 -30 53 -374 666 -466 830 -14 25 -35 63 -48 85 -12 22
-45 81 -73 130 -27 50 -111 198 -185 330 -74 132 -146 260 -160 285 -82 148
-174 312 -201 358 -17 29 -31 55 -31 57 0 18 -92 159 -126 192 -90 88 -223
123 -339 88z"/>
<path d="M4224 4401 c-66 -24 -124 -63 -161 -109 -27 -34 -193 -315 -193 -328
0 -2 -5 -10 -10 -17 -9 -10 -139 -235 -381 -657 -33 -58 -64 -112 -70 -120
-15 -25 -205 -356 -213 -371 -4 -8 -12 -23 -19 -34 -7 -11 -27 -47 -46 -80
-72 -125 -290 -503 -310 -536 -11 -19 -24 -41 -28 -49 -4 -8 -84 -148 -178
-311 -95 -163 -175 -302 -178 -310 -4 -8 -18 -32 -32 -54 -71 -114 -90 -177
-82 -274 10 -120 78 -223 183 -276 73 -37 83 -39 174 -38 82 0 99 7 410 156
74 35 207 98 295 140 88 41 219 103 290 137 72 34 164 78 205 97 41 19 120 57
175 83 55 26 139 66 187 88 l88 41 182 -88 c101 -49 260 -126 353 -171 361
-175 557 -271 747 -364 243 -118 263 -125 347 -122 144 6 253 80 313 213 18
39 22 66 22 138 -1 98 -3 106 -96 270 -24 44 -100 179 -168 300 -67 121 -126
225 -130 230 -4 6 -24 40 -44 78 -20 37 -76 138 -125 225 -48 86 -99 177 -113
202 -14 25 -65 117 -115 205 -49 88 -102 181 -116 208 -29 50 -68 120 -100
177 -85 151 -282 503 -322 575 -15 28 -65 115 -110 195 -45 80 -115 205 -156
279 -91 165 -131 211 -215 252 -82 40 -180 48 -260 20z m143 -1111 c11 -19 35
-62 53 -95 27 -49 136 -243 410 -730 9 -16 34 -61 55 -100 21 -38 62 -110 90
-160 28 -49 54 -97 58 -105 4 -8 18 -35 32 -59 14 -24 24 -46 22 -47 -1 -2
-90 40 -197 92 -470 231 -455 225 -536 229 -81 5 -134 -11 -284 -82 -334 -160
-531 -253 -537 -253 -3 0 -1 6 5 13 5 6 54 89 108 182 53 94 108 188 121 210
13 22 37 65 53 95 17 30 120 210 230 400 110 190 217 375 237 412 41 72 39 72
80 -2z"/>
</g>
</svg>
